<?xml version="1.0" encoding="UTF-8" standalone="no"?>
<svg
   id="Layer_1"
   height="256"
   viewBox="0 0 256 256"
   width="256"
   data-name="Layer 1"
   version="1.1"
   sodipodi:docname="logo.svg"
   inkscape:version="1.2.2 (b0a8486541, 2022-12-01)"
   xmlns:inkscape="http://www.inkscape.org/namespaces/inkscape"
   xmlns:sodipodi="http://sodipodi.sourceforge.net/DTD/sodipodi-0.dtd"
   xmlns="http://www.w3.org/2000/svg"
   xmlns:svg="http://www.w3.org/2000/svg">
  <defs
     id="defs33" />
  <sodipodi:namedview
     id="namedview31"
     pagecolor="#505050"
     bordercolor="#eeeeee"
     borderopacity="1"
     inkscape:showpageshadow="0"
     inkscape:pageopacity="0"
     inkscape:pagecheckerboard="0"
     inkscape:deskcolor="#505050"
     showgrid="false"
     inkscape:zoom="1.5273438"
     inkscape:cx="256"
     inkscape:cy="256"
     inkscape:window-width="1920"
     inkscape:window-height="1011"
     inkscape:window-x="0"
     inkscape:window-y="0"
     inkscape:window-maximized="1"
     inkscape:current-layer="Layer_1" />
  <path
     d="m 28.589801,169.50296 -2.01435,11.35685 -10.260435,7.34856 c -3.773718,-2.7895 -8.1899886,-6.18584 -8.2562837,-8.41438 -0.1121916,-3.75332 4.5743587,-9.76067 4.5743587,-9.76067 3.126067,-1.77977 11.433347,-0.31617 15.95671,-0.53036 z"
     fill="#706a37"
     id="path2"
     style="stroke-width:0.509962" />
  <path
     d="m 207.14329,76.255908 3.41675,-6.889586 c 5.69117,2.014349 11.01517,2.580407 14.43192,4.375473 19.29186,10.097247 32.56617,40.679665 32.91804,58.966905 0.90264,47.04909 -18.11895,80.58418 -41.25082,102.02808 -8.78154,8.139 -24.40678,20.1843 -49.604,21.76008 -1.23411,0.0765 -2.80989,0.24988 -4.50296,0.41817 l 5.18631,-13.48849 -7.72082,-9.67908 c 5.08432,-6.7672 12.22888,-14.32993 17.48149,-21.449 13.07033,-11.62713 24.1518,-27.75213 31.43916,-50.32815 6.08384,-18.84819 9.13341,-53.44401 -3.81452,-71.705747 -2.28973,-3.238259 -6.90488,-6.241935 -11.17327,-10.739799 l 12.21869,-1.305503 z"
     fill="#fff27d"
     id="path4"
     style="stroke-width:0.509962" />
  <path
     d="m 257.91051,132.70921 c -0.35238,-18.28775 -13.62669,-48.870168 -32.91855,-58.967415 -3.41675,-1.795066 -8.74075,-2.361124 -14.43192,-4.375473 l -3.41675,6.889586 -0.97352,1.963353 -0.0321,0.0036 c 11.44762,13.063695 19.15774,31.798169 20.07822,44.715499 3.34178,46.93894 -13.91482,81.41543 -35.90132,104.03224 -4.97774,5.11492 -12.31151,11.74443 -22.73615,16.87363 l -5.02567,13.07134 c 1.69256,-0.1688 3.26885,-0.34218 4.50296,-0.41868 25.19722,-1.57578 40.82246,-13.62108 49.60349,-21.75957 23.13238,-21.44441 42.15346,-54.97899 41.25133,-102.02808 z"
     fill="#ffe33b"
     id="path6"
     style="stroke-width:0.509962" />
  <path
     d="m 75.424707,216.39345 -4.977229,-9.26091 c 9.607683,-4.51826 27.971413,-11.12737 35.355662,-13.65678 28.60377,-9.79637 53.32162,-43.85673 60.18571,-72.83786 1.75937,-7.43525 3.75842,-14.26364 11.02028,-35.335267 a 10.658205,10.658205 0 0 0 0.51506,-2.356025 l 8.24099,2.677301 8.17978,-6.099145 h 0.005 c 4.26839,4.497864 8.88354,7.50154 11.17327,10.739799 12.94794,18.261737 9.89836,52.857557 3.81452,71.705747 -7.28736,22.57602 -18.36883,38.70102 -31.43916,50.32815 -13.69758,12.18299 -29.57779,19.43975 -45.5753,24.01921 -11.87191,3.40144 -39.853525,5.18121 -65.703497,-4.98743 z"
     fill="#fff27d"
     id="path8"
     style="stroke-width:0.509962" />
  <path
     d="m 205.12384,90.265072 c -2.28922,-3.238258 -6.90488,-6.241934 -11.17327,-10.739798 h -0.005 l -5.46781,4.079695 c 6.03285,19.434141 1.54366,46.525361 -4.49837,62.194451 -8.53421,22.1349 -20.49741,37.61683 -34.1955,48.49738 -14.35543,11.40071 -30.61557,17.76096 -46.84358,21.44135 -6.028766,1.36874 -16.066347,2.10665 -27.755185,1.04746 l -8.964622,14.54718 c 25.850482,10.16864 53.832097,8.38887 65.703497,4.98743 15.99751,-4.57895 31.87823,-11.83622 45.5753,-24.01921 13.07033,-11.62713 24.15231,-27.75264 31.43967,-50.32815 6.08333,-18.85074 9.13341,-53.44656 -3.81503,-71.707788 z"
     fill="#f9d438"
     id="path10"
     style="stroke-width:0.509962" />
  <path
     d="m 26.575961,180.8593 2.01435,-11.35685 a 9.9712861,9.9712861 0 0 0 1.422793,-0.15299 c 8.307281,-1.59108 27.996912,-3.34535 37.344515,-4.26838 23.44805,-2.31013 61.445311,-25.79387 75.204091,-51.17978 3.52893,-6.51222 5.91046,-13.3661 18.04245,-31.24027 a 9.6683687,9.6683687 0 0 0 1.06072,-2.085745 l 14.69201,2.320327 1.14231,0.0408 0.0255,0.0102 a 10.658205,10.658205 0 0 1 -0.51506,2.356025 c -7.26186,21.071623 -9.26091,27.900013 -11.02028,35.335263 -6.86409,28.98113 -31.58194,63.04149 -60.18571,72.83786 -7.384249,2.52941 -25.747979,9.13852 -35.355662,13.65678 -2.187737,1.03013 -6.655004,1.70838 -10.576611,2.6824 -10.474619,-2.09594 -26.451727,-8.09819 -39.94022,-18.88899 -0.963828,-0.77004 -2.248933,-1.70327 -3.615631,-2.71809 z"
     fill="#f8ee4f"
     id="path12"
     style="stroke-width:0.509962" />
  <path
     d="m 161.66488,80.575795 c -0.27487,0.744545 -15.57373,26.813795 -19.10266,33.326525 -13.75929,25.3854 -51.756041,48.86914 -75.204601,51.17927 -9.347603,0.92303 -29.036724,2.6773 -37.344515,4.26838 a 9.8902022,9.8902022 0 0 1 -1.422283,0.15299 l -2.01486,11.35685 c 0,0 26.553719,6.52344 47.128644,1.47175 22.881993,-5.61876 61.445315,-25.79438 75.204085,-51.17978 3.52894,-6.51221 22.74431,-48.998162 22.74431,-48.998162 z"
     fill="#fffac1"
     id="path14"
     style="stroke-width:0.509962" />
  <path
     d="m 160.01771,233.74746 7.72082,9.67908 -5.18631,13.48849 c -4.67125,0.46917 -10.22474,0.92303 -11.76993,-0.68335 -2.6059,-2.7028 -3.17706,-10.29613 -3.17706,-10.29613 1.24941,-3.82472 10.00546,-8.99063 12.41248,-12.18809 z"
     fill="#eadf53"
     id="path16"
     style="stroke-width:0.509962" />
  <path
     d="m 59.870867,209.81494 c 3.921607,-0.97402 8.388874,-1.65227 10.576611,-2.6824 l 4.977229,9.26091 -9.204814,14.93679 c -4.441768,-1.74917 -13.886264,-4.82934 -14.793996,-7.81772 -1.121916,-3.70232 1.927656,-10.94888 1.927656,-10.94888 1.219319,-1.21881 3.733432,-2.06025 6.517314,-2.7487 z"
     fill="#706a37"
     id="path18"
     style="stroke-width:0.509962" />
  <g
     fill="#8c8448"
     id="g26"
     transform="matrix(0.50996196,0,0,0.50996196,2.4491508,16.881547)">
    <path
       d="m 408.091,102.919 -6.7,13.51 -1.91,3.85 -23.96,2.56 c -9.26,-9.75 -17.69,-23.09 -18.23,-44.6 -0.21,-8.18 3.42,-16.86 -5.87,-28.15 l 1.17,-0.41 c 15.41,5.56 15.97,15.32 19.99,22.7 9.98,18.34 23.18,26.17 35.51,30.54 z"
       id="path20" />
    <path
       d="m 375.521,122.839 h -0.01 l -16.04,11.96 -16.16,-5.25 c 2.01,-17.99 -15.16,-42.52 -15.16,-42.52 l 0.03,-13.14 c 0,0 -10.81,-16.21 -3.57,-29.37 a 4.32,4.32 0 0 1 3.53,-1.92 c 0,-0.01 0.01,0 0.01,0 7.16,-0.89 21.48,5.46 21.48,5.46 0.64,0.69 1.24,1.36 1.79,2.03 9.29,11.29 5.66,19.97 5.87,28.15 0.54,21.51 8.97,34.85 18.23,44.6 z"
       id="path22" />
    <path
       d="m 328.151,87.029 c 0,0 17.17,24.53 15.16,42.52 l -0.05,-0.02 -2.24,-0.08 -28.81,-4.55 c 6.06,-16.35 -5.98,-43.86 -5.98,-43.86 l 5.94,-12.15 c 0,0 -6.02,-17.97 4.1,-28.44 l 11.87,2.15 a 4.32,4.32 0 0 0 -3.53,1.92 c -7.24,13.16 3.57,29.37 3.57,29.37 z"
       id="path24" />
  </g>
  <path
     d="m 226.41271,71.031857 c -2.22445,-1.164243 -4.97111,-1.847082 -7.87942,-2.569698 -7.53061,-1.87054 -16.90218,-4.198517 -23.39552,-16.130097 a 24.53376,24.53376 0 0 1 -1.01534,-2.235163 c -1.41871,-3.403996 -3.36116,-8.066068 -10.82598,-10.760197 a 3.1296365,3.1296365 0 0 0 -0.40236,-0.111682 3.0480426,3.0480426 0 0 0 -0.90773,-0.631333 51.514317,51.514317 0 0 0 -6.15014,-2.211705 c -1.13467,-0.319746 -3.5524,-0.999525 -5.86457,-0.855716 l -5.69525,-1.028083 a 3.0597717,3.0597717 0 0 0 -2.74462,0.885294 c -5.15061,5.331652 -3.89509,13.247791 -3.14493,16.324902 l -2.52227,5.157755 a 3.0597717,3.0597717 0 0 0 -0.0546,2.571228 c 1.57017,3.586563 5.13175,14.245788 2.99705,20.035386 -0.005,0.01326 -0.0102,0.02601 -0.0148,0.03927 a 6.782494,6.782494 0 0 1 -0.72262,1.432483 c -9.40217,13.854136 -13.11061,21.351589 -15.818,26.826549 -0.84858,1.71602 -1.58088,3.19797 -2.38254,4.67533 -13.45382,24.82036 -50.833009,47.42646 -72.810839,49.58972 -1.353439,0.13361 -2.923612,0.28456 -4.644734,0.44978 -10.246665,0.98474 -25.73166,2.4723 -32.97618,3.85991 a 7.0084072,7.0084072 0 0 1 -0.907222,0.0979 c -0.03417,0 -0.06681,0.003 -0.101992,0.005 -1.322332,0.0607 -3.21939,-0.051 -5.071062,-0.16064 -4.601897,-0.27283 -9.360862,-0.55433 -12.242147,1.08775 a 3.0669112,3.0669112 0 0 0 -0.897023,0.77616 c -0.8960029,1.14844 -5.3546003,7.10989 -5.2169106,11.73372 0.1091319,3.5988 4.1342616,6.83349 10.2624746,11.3543 1.038792,0.76494 2.019449,1.49062 2.753794,2.07809 10.649026,8.51637 22.909021,14.18664 32.958842,17.33871 a 3.0414131,3.0414131 0 0 0 -0.447747,0.72313 c -0.580337,1.37995 -3.402976,8.49341 -2.030669,13.01882 1.121917,3.70538 6.666223,6.03846 14.373788,8.92994 0.822059,0.30598 1.580882,0.59258 2.226494,0.84756 14.890889,5.85742 30.452888,7.88452 43.482923,7.88452 10.07124,0 18.62993,-1.21167 24.18342,-2.80479 a 131.25758,131.25758 0 0 0 28.05709,-11.48078 c -1.1413,1.39832 -2.24078,2.78287 -3.25254,4.1307 -0.73588,0.97912 -2.66965,2.53655 -4.53866,4.04297 -3.59064,2.89149 -7.30317,5.8814 -8.33278,9.03347 a 3.0745606,3.0745606 0 0 0 -0.14228,1.17801 c 0.10862,1.45186 0.81237,8.86467 4.0236,12.1937 1.48909,1.54417 3.92008,2.0577 7.24452,2.0577 2.25556,0 4.92215,-0.23662 7.98498,-0.54821 1.2846,-0.13055 2.49882,-0.25498 3.43664,-0.31261 19.59172,-1.22391 36.43627,-8.60968 51.49596,-22.57244 19.8263,-18.3826 43.24477,-51.40417 42.22485,-104.33108 C 260.6148,114.28774 247.29765,81.963805 226.41267,71.03226 Z M 187.83103,54.166905 c 0.0699,-0.886313 0.14483,-1.850142 0.14789,-2.881795 0.16625,0.377882 0.32842,0.764943 0.49466,1.166283 a 29.664997,29.664997 0 0 0 1.28919,2.804791 c 4.72377,8.680573 10.73776,13.119791 16.57682,15.728757 l -2.1653,4.369864 -9.00797,0.959748 c -3.93537,-4.487665 -7.2231,-10.44606 -7.4536,-19.612117 -0.0194,-0.774632 0.0479,-1.629838 0.11831,-2.535531 z M 170.40206,41.606033 c 1.48399,-0.08618 5.19345,0.92609 8.52402,2.331546 3.27701,3.725782 3.05977,6.527513 2.80479,9.750472 a 30.216266,30.216266 0 0 0 -0.13565,3.169414 c 0.18664,7.412807 2.07554,13.739395 5.77532,19.340817 0.66652,1.009215 1.37077,1.954684 2.09441,2.849157 l -4.25971,3.175533 -4.55039,-1.478889 c -0.11933,-3.538626 -1.21167,-7.609143 -3.27855,-12.174322 a 63.754424,63.754424 0 0 0 -4.52183,-8.231296 l 0.0153,-5.76716 a 3.0597717,3.0597717 0 0 0 -0.51455,-1.706332 c -0.0428,-0.06324 -4.095,-6.372995 -1.95316,-11.25894 z m -5.85589,9.434296 a 18.587603,18.587603 0 0 1 -0.68692,-3.709464 24.216563,24.216563 0 0 0 2.88893,8.084427 l -0.0158,5.843654 a 3.0689511,3.0689511 0 0 0 0.55229,1.761409 c 2.05056,2.936361 6.3526,10.352228 7.14559,16.474831 l -9.04111,-1.427894 c 1.0087,-7.463803 -2.04954,-16.284615 -3.42134,-19.749296 l 2.42589,-4.95989 a 3.0623215,3.0623215 0 0 0 0.15248,-2.318797 z M 16.360403,184.41323 c -2.218844,-1.70429 -4.754375,-3.79412 -5.240369,-4.87014 0.07038,-1.68797 1.957744,-4.93949 3.47896,-7.03339 1.719592,-0.50997 5.839065,-0.26467 8.398054,-0.11321 0.67315,0.0398 1.322331,0.0775 1.951624,0.10964 l -1.170362,6.59432 z m 5.480561,4.12508 c -0.109642,-0.0882 -0.232033,-0.18206 -0.348814,-0.27334 l 5.686586,-4.07306 c 2.724217,0.71139 9.002868,2.26627 16.077571,3.43408 a 3.0597717,3.0597717 0 0 0 0.996975,-6.03744 C 38.470824,180.6339 33.139681,179.38347 30.0794,178.61496 l 1.131095,-6.37452 c 7.219022,-1.30296 21.946213,-2.7181 31.787969,-3.66357 1.726731,-0.16574 3.302003,-0.3172 4.660032,-0.45081 23.934045,-2.35908 63.040474,-25.92136 77.590714,-52.76423 0.8552,-1.57782 1.64819,-3.18114 2.48708,-4.8783 2.77624,-5.60958 6.23021,-12.596056 15.39728,-26.102909 0.0959,-0.141769 0.18155,-0.289148 0.2713,-0.434487 l 10.27421,1.623719 c -6.94569,20.202147 -8.9274,27.008097 -10.66943,34.363787 -6.42195,27.12641 -29.94649,60.96952 -58.19635,70.6486 -6.518329,2.23312 -25.631194,9.06253 -35.666225,13.78376 -1.148434,0.54056 -3.598292,1.06378 -5.966555,1.56966 -1.121916,0.23969 -2.251482,0.48192 -3.356059,0.74353 -10.187001,-2.15306 -25.288504,-7.98805 -37.983497,-18.14088 z m 43.102495,39.03147 c -2.678321,-1.00463 -9.455715,-3.5575 -10.623528,-5.07922 -0.407969,-1.71347 0.618074,-5.54023 1.580882,-8.0625 0.901613,-0.57932 2.632424,-1.11529 4.478486,-1.58088 a 3.0449828,3.0449828 0 0 0 0.591046,-0.14636 c 1.21167,-0.29323 2.439658,-0.55586 3.48712,-0.77973 1.659416,-0.35698 3.184202,-0.68284 4.524892,-1.05052 l 2.911883,5.41987 z m 66.138491,5.80643 c -10.95143,3.13524 -36.439327,4.70745 -60.294837,-3.62379 l 6.361265,-10.32316 a 88.925126,88.925126 0 0 0 14.255477,-1.74509 3.0598643,3.0598643 0 0 0 -1.203511,-6.00022 84.31354,84.31354 0 0 1 -12.964762,1.61811 l -2.540631,-4.72989 c 10.232387,-4.48206 26.268649,-10.19924 32.101089,-12.19982 13.8628,-4.74979 27.94285,-15.48143 39.6475,-30.2178 10.78518,-13.57876 18.99353,-29.91131 22.52094,-44.81036 1.71347,-7.23585 3.68498,-13.97907 10.73878,-34.473424 l 5.11696,1.661456 a 3.0597717,3.0597717 0 0 0 2.77419,-0.458966 l 6.0609,-4.518773 c 1.3723,1.309582 2.72013,2.479945 3.95067,3.546786 2.12552,1.843002 3.9619,3.435103 5.02313,4.931842 12.16565,17.160729 9.30935,50.678489 3.39532,68.997849 -6.6907,20.72537 -17.27853,37.47354 -31.46873,49.77943 -11.71994,10.16507 -25.94023,17.54575 -43.47375,22.56582 z m 29.29477,20.66875 c -2.85579,0.24479 -6.36943,0.43602 -7.49644,-0.054 -1.08265,-1.29684 -1.87054,-4.97366 -2.15102,-7.54744 0.93119,-1.52988 4.14599,-4.12049 6.14147,-5.72789 1.04389,-0.84042 2.01792,-1.62831 2.89098,-2.3856 l 4.49225,5.63406 z m 54.20437,-21.5515 c -5.12002,4.74673 -20.66264,19.14958 -47.4076,20.92833 l 3.42032,-8.89527 a 3.0597717,3.0597717 0 0 0 -0.46356,-3.00571 l -6.22459,-7.80548 c 2.0327,-2.58245 4.30713,-5.26383 6.69223,-8.07219 3.18624,-3.7523 6.47651,-7.63056 9.26907,-11.40224 14.52524,-13.01729 25.11256,-30.05103 31.98124,-51.32767 5.87068,-18.18524 9.91417,-54.46954 -4.22708,-74.416706 -1.48755,-2.098493 -3.68243,-4.001671 -6.00633,-6.017551 -0.2356,-0.203984 -0.47477,-0.411539 -0.71394,-0.620113 l 5.59326,-0.596146 a 3.0597717,3.0597717 0 0 0 2.39019,-1.636468 c 8.11808,1.561504 15.30294,6.598398 23.14003,23.074244 a 3.0597717,3.0597717 0 1 0 5.52595,-2.62885 C 232.02229,88.450118 225.02919,77.394143 211.67736,73.998816 l 0.44826,-0.905182 c 1.72316,0.509961 3.38156,0.922521 4.93235,1.307542 2.6518,0.659381 4.94306,1.228498 6.51731,2.052087 18.61719,9.744863 30.95826,39.861687 31.27495,56.313567 0.97505,50.66064 -21.36078,82.19363 -40.26914,99.72663 z"
     fill="#151515"
     id="path28"
     style="stroke-width:0.509962" />
</svg>
