<?xml version="1.0" encoding="UTF-8" standalone="no"?>
<svg
   id="Layer_6"
   enable-background="new 0 0 128 128"
   viewBox="0 0 256 256"
   version="1.1"
   sodipodi:docname="logo.svg"
   width="256"
   height="256"
   inkscape:version="1.2.2 (b0a8486541, 2022-12-01)"
   xmlns:inkscape="http://www.inkscape.org/namespaces/inkscape"
   xmlns:sodipodi="http://sodipodi.sourceforge.net/DTD/sodipodi-0.dtd"
   xmlns="http://www.w3.org/2000/svg"
   xmlns:svg="http://www.w3.org/2000/svg">
  <defs
     id="defs150" />
  <sodipodi:namedview
     id="namedview148"
     pagecolor="#505050"
     bordercolor="#eeeeee"
     borderopacity="1"
     inkscape:showpageshadow="0"
     inkscape:pageopacity="0"
     inkscape:pagecheckerboard="0"
     inkscape:deskcolor="#505050"
     showgrid="false"
     inkscape:zoom="6.109375"
     inkscape:cx="28.971867"
     inkscape:cy="47.795396"
     inkscape:window-width="1920"
     inkscape:window-height="1011"
     inkscape:window-x="0"
     inkscape:window-y="0"
     inkscape:window-maximized="1"
     inkscape:current-layer="Layer_6" />
  <g
     id="XMLID_2451_"
     transform="matrix(2.617845,0,0,2.617845,-38.305959,-42.339457)">
    <g
       id="XMLID_2513_">
      <path
         d="m 28.1,52.9 c -1.8,4.2 -0.2,10.2 4.1,12.1 4.3,1.8 9.3,1.1 11,-3.1 1.8,-4.2 1.5,-8.7 -2.8,-10.5 -4.3,-2 -10.5,-2.7 -12.3,1.5 z"
         fill="#fcbd9a"
         id="path2" />
    </g>
    <g
       id="XMLID_2512_">
      <path
         id="XMLID_3623_"
         d="m 36.7,66.9 c -1.6,0 -3.3,-0.4 -4.8,-1 -2.3,-1 -4.1,-3 -4.9,-5.8 -0.8,-2.6 -0.7,-5.3 0.3,-7.6 2,-4.6 8.5,-4.3 13.7,-2.1 4.3,1.8 5.6,6.5 3.4,11.9 -1.6,3.2 -4.6,4.6 -7.7,4.6 z M 33.8,50.8 c -2.1,0 -4,0.6 -4.8,2.5 -0.8,1.8 -0.8,4.1 -0.2,6.2 0.7,2.2 2,3.8 3.8,4.5 3.6,1.5 8.1,1.2 9.7,-2.6 0.7,-1.6 2.6,-7.1 -2.3,-9.2 -1.7,-0.8 -4.1,-1.4 -6.2,-1.4 z" />
    </g>
    <g
       id="XMLID_2511_">
      <path
         d="m 32.2,54.8 c -1.1,2.5 -0.1,6.1 2.5,7.2 2.6,1.1 5.5,0.6 6.6,-1.9 1.1,-2.5 0.9,-5.2 -1.7,-6.3 -2.6,-1 -6.3,-1.5 -7.4,1 z"
         fill="#ff5252"
         id="path7" />
    </g>
    <g
       id="XMLID_2510_">
      <path
         id="XMLID_3620_"
         d="m 37.4,63.6 c -1,0 -2,-0.2 -3,-0.6 -1.5,-0.6 -2.6,-2 -3.2,-3.7 -0.5,-1.6 -0.4,-3.4 0.2,-4.8 1.3,-3 5.4,-2.9 8.7,-1.5 1.5,0.6 2.5,1.8 2.8,3.3 0.3,1.3 0.1,2.8 -0.6,4.3 -0.6,1.5 -1.8,2.5 -3.4,2.9 -0.5,0.1 -1,0.1 -1.5,0.1 z m -4.2,-8.4 c -0.4,1 -0.5,2.3 -0.1,3.4 0.4,1.2 1.1,2.1 2,2.5 1.1,0.5 2.3,0.6 3.2,0.4 0.7,-0.2 1.6,-0.6 2.1,-1.7 0.5,-1.1 0.6,-2.2 0.5,-3.1 -0.2,-0.9 -0.7,-1.5 -1.6,-1.9 -2,-0.8 -5.3,-1.4 -6.1,0.4 z" />
    </g>
    <g
       id="XMLID_2509_">
      <path
         d="m 87.8,86.3 c 0,15.5 -10.1,22.7 -22.7,22.7 -12.6,0 -22.7,-7.2 -22.7,-22.7 0,-2.9 0.4,-5.4 1,-7.5 0.5,-1.6 1.2,-3 2,-4.2 3.9,-5.7 11.2,-7.4 19.6,-7.4 8.4,0 15.7,1.6 19.6,7.4 0.9,1.2 1.5,2.6 2,4.2 0.8,2.1 1.2,4.5 1.2,7.5 z"
         fill="#873508"
         id="path12" />
    </g>
    <g
       id="XMLID_2508_"
       opacity="0.3">
      <path
         id="XMLID_3618_"
         d="M 87.6,89.4 C 86.3,102.8 76.7,109 65.1,109 52.6,109 42.4,101.8 42.4,86.3 c 0,-2.6 0.3,-4.9 0.8,-6.8 -0.1,0.9 -0.1,1.8 -0.1,2.7 0,15.5 10.1,22.7 22.7,22.7 10.4,0 19.1,-5 21.8,-15.5 z" />
    </g>
    <g
       id="XMLID_2507_">
      <path
         d="m 81.1,87.9 c 0,10.4 -6.7,13.8 -15.5,13.8 -8.8,0 -16.5,-3.4 -16.5,-13.8 0,-10.4 7.2,-18.7 16,-18.7 8.8,0 16,8.3 16,18.7 z"
         fill="#fcbd9a"
         id="path17" />
    </g>
    <g
       id="XMLID_2506_">
      <path
         d="m 102.2,52.9 c 1.8,4.2 0.2,10.2 -4.1,12.1 -4.3,1.8 -9.3,1.1 -11,-3.1 -1.8,-4.2 -1.5,-8.7 2.8,-10.5 4.2,-2 10.5,-2.7 12.3,1.5 z"
         fill="#fcbd9a"
         id="path20" />
    </g>
    <g
       id="XMLID_2505_"
       opacity="0.3">
      <path
         id="XMLID_3608_"
         d="m 98,65 c -4.3,1.8 -9.3,1 -11.1,-3.1 -0.7,-1.7 -1.1,-3.4 -1,-5 0.2,0.7 0.4,1.4 0.7,2 1.8,4.2 6.7,5 11,3.1 3,-1.3 4.7,-4.7 4.8,-8 1.2,4.1 -0.4,9.3 -4.4,11 z" />
    </g>
    <g
       id="XMLID_2504_">
      <path
         id="XMLID_3615_"
         d="M 93.6,66.9 C 92.8,66.9 92,66.8 91.3,66.6 88.9,66 87,64.4 86,62.2 c -2.3,-5.4 -1,-10 3.4,-11.9 5.2,-2.2 11.7,-2.5 13.7,2.1 1,2.3 1.1,5 0.3,7.6 -0.9,2.7 -2.6,4.8 -4.9,5.8 -1.7,0.7 -3.3,1.1 -4.9,1.1 z m 2.8,-16.1 c -2.1,0 -4.4,0.6 -6.2,1.4 -4.9,2.1 -3,7.6 -2.3,9.2 0.9,2.1 2.6,2.9 3.9,3.2 1.8,0.4 3.9,0.2 5.8,-0.6 1.8,-0.8 3.1,-2.4 3.8,-4.5 0.7,-2.1 0.6,-4.4 -0.2,-6.2 -0.7,-1.8 -2.6,-2.5 -4.8,-2.5 z" />
    </g>
    <g
       id="XMLID_2503_">
      <path
         d="m 98,54.8 c 1.1,2.5 0.1,6.1 -2.5,7.2 -2.6,1.1 -5.5,0.6 -6.6,-1.9 -1.1,-2.5 -0.9,-5.2 1.7,-6.3 2.6,-1 6.3,-1.5 7.4,1 z"
         fill="#ff5252"
         id="path27" />
    </g>
    <g
       id="XMLID_2502_">
      <path
         id="XMLID_3612_"
         d="m 92.9,63.6 c -0.5,0 -1,-0.1 -1.5,-0.2 C 89.8,63 88.6,62 88,60.5 c -0.6,-1.5 -0.8,-3 -0.6,-4.3 0.3,-1.5 1.3,-2.7 2.8,-3.3 3.3,-1.4 7.4,-1.5 8.7,1.5 1.2,2.9 0.2,7.2 -3,8.5 -1,0.5 -2,0.7 -3,0.7 z M 94.6,54 c -1.2,0 -2.6,0.4 -3.6,0.8 -0.9,0.4 -1.4,1 -1.6,1.9 -0.2,0.9 0,2 0.5,3.1 0.5,1.1 1.4,1.5 2.1,1.7 1,0.2 2.1,0.1 3.2,-0.4 2.1,-0.9 2.8,-4 1.9,-5.9 C 96.7,54.3 95.7,54 94.6,54 Z" />
    </g>
    <g
       id="XMLID_2501_">
      <path
         id="XMLID_3609_"
         d="m 65.1,110 c -14.6,0 -23.7,-9.1 -23.7,-23.7 0,-18.1 13.5,-20.1 23.7,-20.1 10.2,0 23.7,2.1 23.7,20.1 0,14.6 -9.1,23.7 -23.7,23.7 z m 0,-41.9 c -15,0 -21.7,5.6 -21.7,18.1 0,13.6 8.1,21.7 21.7,21.7 13.6,0 21.7,-8.1 21.7,-21.7 0,-12.5 -6.7,-18.1 -21.7,-18.1 z" />
    </g>
    <g
       id="XMLID_2500_"
       opacity="0.3">
      <path
         id="XMLID_3607_"
         d="m 32.2,65 c 4.3,1.8 9.3,1 11.1,-3.1 0.7,-1.7 1.1,-3.4 1,-5 -0.2,0.7 -0.4,1.4 -0.7,2 -1.8,4.2 -6.7,5 -11,3.1 -3,-1.3 -4.7,-4.7 -4.8,-8 -1.2,4.1 0.5,9.3 4.4,11 z" />
    </g>
    <g
       id="XMLID_2499_"
       opacity="0.3">
      <path
         id="XMLID_3606_"
         d="m 86.8,78.7 c -6.1,1.6 -13.6,2.6 -21.6,2.6 -8,0 -15.5,-1 -21.6,-2.6 0.5,-1.6 1.2,-3 2,-4.2 5.7,1.4 12.4,2.1 19.6,2.1 7.2,0 13.9,-0.8 19.6,-2.1 0.8,1.2 1.5,2.6 2,4.2 z" />
    </g>
    <g
       id="XMLID_2498_">
      <path
         d="m 89.5,65.4 c 3.5,-4.3 5.6,-9.6 5.6,-15.3 0,-14.6 -13.4,-26.4 -30,-26.4 -1.2,0 -2.4,0.1 -3.5,0.2 -1.1,0.1 -7.2,-2.4 -11.2,-6.7 0,0 -2.1,4.9 -2.1,6.7 0,0 -2.8,-0.1 -6.5,-3.1 0,0 -2.5,7 3.2,9.6 -6.1,4.8 -10,11.9 -10,19.7 0,5.7 2.1,11 5.6,15.3 -1.5,1.3 -2.4,2.8 -2.4,4.3 0,5.8 12,10.5 26.8,10.5 14.8,0 27,-4.7 27,-10.5 0,-1.5 -0.9,-3 -2.5,-4.3 z"
         fill="#873508"
         id="path38" />
    </g>
    <g
       id="XMLID_2497_"
       opacity="0.6">
      <path
         id="XMLID_3599_"
         d="m 65.1,23.6 c -1.2,0 -2.4,0.1 -3.5,0.2 -1.1,0.1 -7.2,-2.4 -11.2,-6.7 0,0 -2,4.9 -2,6.7 0,0 -2.8,0 -6.5,-3.1 V 23 c -0.1,-0.1 -0.3,-0.2 -0.4,-0.3 -0.3,2.3 -0.1,5.9 3.7,7.6 -6.1,4.9 -10,11.9 -10,19.7 0,2.3 0.3,4.5 1,6.6 -0.4,-2.4 -0.5,-4.9 0,-7.4 0.8,-4.3 2.6,-8.7 5,-11.9 C 44.3,33 48,30.5 48,30.5 43.6,27.7 43.4,25 43.4,24.2 c 3.2,1.9 6.2,1.9 6.2,1.9 0,-1.7 1.8,-5.6 1.8,-5.6 4,4 10.3,6.3 10.3,6.3 1.2,-0.1 2.3,-0.2 3.5,-0.2 16.3,0 29.6,10.9 29.9,24.5 0,-0.3 0,-0.6 0,-1 0,-14.6 -13.4,-26.5 -30,-26.5 z"
         fill="#ffffff" />
    </g>
    <g
       id="XMLID_2496_">
      <path
         id="XMLID_3603_"
         d="m 65.1,81.2 c -15.6,0 -27.8,-5 -27.8,-11.5 0,-1.6 0.7,-3.1 2.1,-4.4 -3.4,-4.5 -5.2,-9.8 -5.2,-15.2 0,-7.4 3.4,-14.4 9.3,-19.6 -3.8,-2.7 -3.3,-7.6 -2.4,-10.1 0.1,-0.3 0.4,-0.5 0.7,-0.6 0.3,-0.1 0.6,0 0.9,0.2 2.1,1.8 4,2.4 5,2.7 0.5,-2.2 1.8,-5.5 2,-5.9 0.1,-0.3 0.4,-0.5 0.7,-0.6 0.3,-0.1 0.7,0.1 0.9,0.3 3.4,3.7 9.4,5.9 10.5,6.3 1.2,-0.1 2.3,-0.2 3.4,-0.2 17.1,0 31,12.3 31,27.4 0,5.5 -1.8,10.7 -5.2,15.2 1.4,1.4 2.1,2.9 2.1,4.4 -0.1,6.5 -12.4,11.6 -28,11.6 z M 45.5,29.4 c 0.2,0.1 0.4,0.2 0.5,0.4 0.2,0.4 0.1,1 -0.2,1.3 -6.1,4.8 -9.6,11.7 -9.6,18.9 0,5.3 1.8,10.4 5.3,14.7 0.3,0.4 0.3,1 -0.1,1.4 -1.4,1.2 -2.1,2.4 -2.1,3.6 0,4.6 10.4,9.5 25.8,9.5 15.4,0 25.8,-4.9 25.8,-9.5 0,-1.2 -0.7,-2.4 -2.1,-3.6 -0.4,-0.4 -0.5,-1 -0.1,-1.4 C 92.2,60.4 94,55.3 94,50 94,36 81,24.6 65,24.6 c -1.1,0 -2.3,0.1 -3.4,0.2 -0.2,0 -0.4,0 -0.5,-0.1 -1,-0.3 -6.5,-2.3 -10.3,-5.8 -0.7,1.8 -1.4,4 -1.4,4.9 0,0.3 -0.1,0.5 -0.3,0.7 -0.2,0.2 -0.4,0.3 -0.7,0.3 -0.1,0 -2.6,-0.1 -5.8,-2.4 -0.4,2 -0.5,5.4 2.9,7 z" />
    </g>
    <g
       id="XMLID_2495_">
      <path
         d="m 84.2,66.9 c 2.9,-5.1 9.7,-19.2 0.7,-28.5 -3.1,-3.2 -7.3,-5 -11.7,-4.5 -3.3,0.4 -7,2.1 -8.1,7.7 C 64,36 60.3,34.2 57,33.9 c -4.4,-0.5 -8.7,1.4 -11.7,4.5 -9,9.3 -2.2,23.4 0.7,28.5 -1.1,1.2 -1.8,2.4 -1.8,3.8 0,5.2 9.3,9.5 20.9,9.5 11.6,0 20.9,-4.3 20.9,-9.5 0,-1.4 -0.7,-2.7 -1.8,-3.8 z"
         fill="#fcbd9a"
         id="path45" />
    </g>
    <g
       id="XMLID_2494_">
      <path
         id="XMLID_3600_"
         d="m 65.1,81.2 c -12.3,0 -21.9,-4.6 -21.9,-10.5 0,-1.4 0.5,-2.7 1.5,-3.9 -3.4,-6.1 -9.3,-19.7 -0.2,-29.1 3.5,-3.6 8,-5.3 12.5,-4.8 2.8,0.3 6.1,1.6 8,5.5 1.9,-3.9 5.3,-5.2 8,-5.5 4.5,-0.5 9.1,1.2 12.5,4.8 9,9.3 3.1,23 -0.2,29.1 1,1.2 1.5,2.6 1.5,3.9 0.2,5.9 -9.4,10.5 -21.7,10.5 z M 55.6,34.8 c -3.5,0 -6.9,1.5 -9.6,4.3 -8.4,8.7 -2.2,22 0.9,27.3 0.2,0.4 0.2,0.9 -0.1,1.2 -1,1 -1.5,2.1 -1.5,3.1 0,4.6 9.1,8.5 19.9,8.5 10.8,0 19.8,-3.9 19.8,-8.5 0,-1 -0.5,-2.1 -1.5,-3.1 -0.3,-0.3 -0.4,-0.8 -0.1,-1.2 3.1,-5.3 9.3,-18.6 0.9,-27.3 -3,-3.1 -7,-4.7 -10.9,-4.2 -3.9,0.4 -6.4,2.8 -7.3,6.9 -0.1,0.5 -0.5,0.8 -1,0.8 -0.5,0 -0.9,-0.3 -1,-0.8 -0.9,-4.1 -3.3,-6.4 -7.3,-6.9 -0.4,-0.1 -0.8,-0.1 -1.2,-0.1 z" />
    </g>
    <g
       id="XMLID_2485_">
      <g
         id="XMLID_2490_">
        <g
           id="XMLID_2493_">
          <path
             d="m 60.5,53 c 0,1.5 -0.6,2.7 -1.6,3.6 -3,-0.8 -5.2,-0.5 -6.5,-0.1 -0.9,-0.9 -1.5,-2.1 -1.5,-3.5 0,-2.7 2.2,-4.8 4.8,-4.8 2.6,0 4.8,2.1 4.8,4.8 z"
             id="path50" />
        </g>
        <g
           id="XMLID_2491_">
          <g
             id="XMLID_2492_">
            <circle
               cx="57.299999"
               cy="51.5"
               fill="#ffffff"
               r="1.7"
               id="circle53" />
          </g>
        </g>
      </g>
      <g
         id="XMLID_2486_">
        <g
           id="XMLID_2489_">
          <path
             d="m 79.4,53 c 0,1.6 -0.7,2.9 -1.9,3.8 -0.2,-0.1 -0.4,-0.1 -0.6,-0.2 -2.5,-0.7 -4.5,-0.6 -5.9,-0.3 -0.8,-0.9 -1.3,-2 -1.3,-3.3 0,-2.7 2.2,-4.8 4.8,-4.8 2.8,0 4.9,2.1 4.9,4.8 z"
             id="path58" />
        </g>
        <g
           id="XMLID_2487_">
          <g
             id="XMLID_2488_">
            <circle
               cx="76.199997"
               cy="51.5"
               fill="#ffffff"
               r="1.7"
               id="circle61" />
          </g>
        </g>
      </g>
    </g>
    <g
       id="XMLID_2484_">
      <ellipse
         cx="78.900002"
         cy="63.900002"
         fill="#ff5252"
         rx="3.5"
         ry="2"
         id="ellipse67" />
    </g>
    <g
       id="XMLID_2483_">
      <ellipse
         cx="51.700001"
         cy="63.900002"
         fill="#ff5252"
         rx="3.5"
         ry="2"
         id="ellipse70" />
    </g>
    <g
       id="XMLID_2480_">
      <g
         id="XMLID_2482_">
        <path
           d="M 62.4,64.7 60.8,64 C 60.2,63.7 60,63 60.4,62.5 60.7,62 61.5,61.8 62,62.2 l 1.3,1.1 c 0.4,0.3 0.4,0.8 0.2,1.2 -0.2,0.3 -0.7,0.4 -1.1,0.2 z"
           id="path73" />
      </g>
      <g
         id="XMLID_2481_">
        <path
           d="M 67.9,64.7 69.4,64 C 70,63.7 70.2,63 69.8,62.5 69.5,62 68.7,61.8 68.2,62.2 l -1.3,1.1 c -0.4,0.3 -0.4,0.8 -0.2,1.2 0.3,0.3 0.8,0.4 1.2,0.2 z"
           id="path76" />
      </g>
    </g>
    <g
       id="XMLID_2479_"
       opacity="0.3">
      <path
         id="XMLID_3592_"
         d="m 92,69.7 c 0,5.8 -12,10.4 -26.8,10.4 -14.8,0 -26.8,-4.7 -26.8,-10.4 0,-0.6 0.1,-1.1 0.3,-1.7 2,5 13.1,8.8 26.5,8.8 13.4,0 24.4,-3.8 26.4,-8.8 0.2,0.6 0.4,1.1 0.4,1.7 z" />
    </g>
    <g
       id="XMLID_2475_">
      <g
         id="XMLID_2478_">
        <path
           d="m 75.4,70.4 c 0,1.3 -0.6,2.4 -1.7,3.4 -1.8,1.7 -5,2.8 -8.6,2.8 -3.6,0 -6.8,-1.1 -8.7,-2.9 -1,-1 -1.6,-2.1 -1.6,-3.3 0,-3.4 4.6,-1.3 10.3,-1.3 5.7,0 10.3,-2.1 10.3,1.3 z"
           id="path82" />
      </g>
      <g
         id="XMLID_2477_">
        <path
           d="m 73.7,73.8 c -1.8,1.7 -5,2.8 -8.6,2.8 -3.6,0 -6.8,-1.1 -8.7,-2.9 1.8,-1.7 5,-2.8 8.6,-2.8 3.7,0.1 6.9,1.2 8.7,2.9 z"
           fill="#b71c1c"
           id="path85" />
      </g>
      <g
         id="XMLID_2476_">
        <path
           id="XMLID_3596_"
           d="m 65.1,77.1 c -6,0 -10.8,-3 -10.8,-6.7 0,-0.8 0.2,-1.4 0.7,-1.8 1,-0.9 2.8,-0.7 5.3,-0.4 1.4,0.2 3.1,0.4 4.8,0.4 1.7,0 3.4,-0.2 4.8,-0.4 2.5,-0.3 4.3,-0.5 5.3,0.4 0.5,0.4 0.7,1 0.7,1.8 0,3.7 -4.8,6.7 -10.8,6.7 z M 57.3,69 c -0.7,0 -1.3,0.1 -1.6,0.4 -0.2,0.2 -0.4,0.6 -0.4,1.1 0,3.1 4.4,5.7 9.8,5.7 5.4,0 9.8,-2.6 9.8,-5.7 0,-0.5 -0.1,-0.9 -0.4,-1.1 -0.7,-0.6 -2.4,-0.4 -4.5,-0.1 -1.5,0.2 -3.2,0.4 -5,0.4 -1.8,0 -3.5,-0.2 -5,-0.4 C 59.1,69.1 58.1,69 57.3,69 Z" />
      </g>
    </g>
    <g
       id="XMLID_2464_">
      <g
         id="XMLID_2474_">
        <path
           d="m 97.5,85 c 0,0 5.7,-2.7 7.5,-9.4 l 6.4,3.3 c 0,0 0,10.4 -9.3,12.4 z"
           fill="#43a047"
           id="path91" />
      </g>
      <g
         id="XMLID_2473_">
        <path
           id="XMLID_3593_"
           d="m 102,92.3 c -0.3,0 -0.6,-0.2 -0.8,-0.4 l -4.5,-6.3 c -0.2,-0.2 -0.2,-0.5 -0.2,-0.8 0.1,-0.3 0.3,-0.5 0.5,-0.7 0.1,0 5.3,-2.6 6.9,-8.7 0.1,-0.3 0.3,-0.5 0.6,-0.7 0.3,-0.1 0.6,-0.1 0.9,0 l 6.4,3.3 c 0.3,0.2 0.5,0.5 0.5,0.9 0,0.1 -0.1,11.2 -10.1,13.4 -0.1,0 -0.1,0 -0.2,0 z m -3.1,-7 3.5,4.9 c 6.7,-1.8 7.7,-8.6 7.9,-10.7 L 105.6,77 c -1.7,4.6 -5,7.2 -6.7,8.3 z" />
      </g>
      <g
         id="XMLID_2472_">
        <path
           d="M 100.8,97.7 C 69.8,122.9 23.9,100.3 16.7,91.6 16.2,91 15.9,90.4 15.8,90 15.7,89.7 15.7,89.4 15.7,89.1 15,83 20.2,78.2 26,78.5 c 0.8,0 1.5,0.2 2.3,0.4 36.3,10.7 71.2,1.8 71.2,1.8 0.9,0.6 1.6,1.2 2.3,1.9 4.2,4.3 3.6,11.3 -1,15.1 z"
           fill="#ffb300"
           id="path96" />
      </g>
      <g
         id="XMLID_2471_"
         opacity="0.6">
        <path
           id="XMLID_3591_"
           d="m 101.5,84.7 c 0,0 -35.9,8.7 -73.2,-2.2 -5.4,-1.6 -11,1.4 -12.6,6.2 -0.5,-6.7 6.2,-11.8 12.7,-9.8 36.3,10.7 71.2,1.8 71.2,1.8 0.9,0.6 1.8,1.1 2.3,1.9 0.3,0.7 0.3,1.6 -0.4,2.1 z"
           fill="#ffffff" />
      </g>
      <g
         id="XMLID_2470_"
         opacity="0.3">
        <path
           id="XMLID_3587_"
           d="m 100.8,97.7 c -33.2,27 -83.7,-1 -85,-7.8 -0.1,-0.3 -0.1,-0.6 -0.1,-0.9 -0.2,-2.2 0.3,-4.3 1.4,-6 4.6,7.9 52.6,33 84.7,7 1.1,-0.9 1.9,-1.9 2.6,-3.1 0.9,3.9 -0.3,8.2 -3.6,10.8 z" />
      </g>
      <g
         id="XMLID_2469_">
        <path
           id="XMLID_3588_"
           d="m 66.5,110.2 c -11.9,0 -22.3,-3 -28.2,-5.1 -12,-4.3 -22.8,-11.1 -23.5,-14.9 -0.1,-0.3 -0.1,-0.7 -0.1,-1 -0.4,-3.5 1,-6.8 3.7,-9.1 2.9,-2.4 6.7,-3.2 10.3,-2.1 30.5,9 60.1,4.1 68.4,2.3 2,-0.4 3.9,0.2 5.3,1.5 l 0.2,0.2 c 2.2,2.2 3.3,5.2 3.1,8.3 -0.2,3.2 -1.7,6.2 -4.2,8.2 -11.1,9 -23.7,11.7 -35,11.7 z m -41,-30.7 c -2.1,0 -4.2,0.7 -5.8,2.1 -2.2,1.9 -3.3,4.5 -3,7.3 0,0.3 0.1,0.5 0.1,0.8 0.4,2 8.4,8.4 22.2,13.4 11.2,4 39.4,11.4 61.2,-6.2 2.1,-1.7 3.3,-4.2 3.5,-6.8 0.1,-2.6 -0.8,-5 -2.5,-6.8 l -0.1,-0.1 C 100.2,82.3 98.9,82 97.6,82.2 89,84 59.1,89.1 28.1,79.9 27.2,79.6 26.4,79.5 25.5,79.5 Z" />
      </g>
      <g
         id="XMLID_2468_">
        <ellipse
           cx="108.2"
           cy="77.199997"
           rx="4.5999999"
           ry="2.0999999"
           transform="matrix(0.895,0.446,-0.446,0.895,45.793,-40.149)"
           id="ellipse105" />
      </g>
      <g
         id="XMLID_2467_">
        <path
           d="m 26.1,79 -1.2,10.1 -8.2,2.5 C 16.2,91 15.9,90.4 15.8,90 15.7,89.7 15.7,89.4 15.7,89.1 15,83 20.2,78.2 26,78.5 c 0.1,0.3 0.1,0.5 0.1,0.5 z"
           id="path108" />
      </g>
      <g
         id="XMLID_2466_">
        <path
           d="m 24.3,88 c 0,0 2.2,2.6 7.7,5.5 0,0 -7,-0.3 -9.3,-4.5 z"
           id="path111" />
      </g>
      <g
         id="XMLID_2465_">
        <path
           d="m 107.2,78.2 -0.9,4.6 2.1,-3.9 z"
           id="path114" />
      </g>
    </g>
    <g
       id="XMLID_2458_">
      <g
         id="XMLID_2463_">
        <ellipse
           cx="42.5"
           cy="103"
           fill="#fcbd9a"
           rx="7.5"
           ry="7.9000001"
           transform="matrix(0.949,0.315,-0.315,0.949,34.615,-8.135)"
           id="ellipse118" />
      </g>
      <g
         id="XMLID_2462_"
         opacity="0.3">
        <path
           id="XMLID_3583_"
           d="m 49.6,105.4 c -1.4,4.1 -5.7,6.4 -9.6,5.1 -3.5,-1.2 -5.6,-4.9 -4.9,-8.6 0.8,2 2.4,3.7 4.5,4.4 3.9,1.3 8.2,-1 9.6,-5.1 0.1,-0.4 0.2,-0.8 0.3,-1.2 0.6,1.6 0.7,3.5 0.1,5.4 z" />
      </g>
      <g
         id="XMLID_2461_">
        <path
           id="XMLID_3584_"
           d="m 42.2,111.9 c -0.9,0 -1.7,-0.1 -2.6,-0.4 -4.4,-1.5 -6.8,-6.5 -5.3,-11.1 1.5,-4.6 6.4,-7.2 10.9,-5.7 4.4,1.5 6.8,6.5 5.3,11.1 -1.2,3.6 -4.6,6.1 -8.3,6.1 z m 0.5,-15.7 c -2.8,0 -5.4,1.9 -6.4,4.8 -1.2,3.6 0.6,7.4 4,8.6 3.4,1.1 7.1,-0.9 8.3,-4.5 1.2,-3.6 -0.6,-7.4 -4,-8.6 -0.6,-0.2 -1.3,-0.3 -1.9,-0.3 z" />
      </g>
      <g
         id="XMLID_2460_">
        <path
           d="m 42.1,95.7 c 0,0 -1.1,3.1 -0.6,4.7 0,0 1,-3.9 1.9,-4.7 z"
           id="path125" />
      </g>
      <g
         id="XMLID_2459_">
        <path
           d="m 48.4,97.9 c 0,0 -1.8,3 -3.7,3.9 0,0 2.2,-0.1 4.1,-2.6 z"
           id="path128" />
      </g>
    </g>
    <g
       id="XMLID_2452_">
      <g
         id="XMLID_2457_">
        <ellipse
           cx="90.5"
           cy="103"
           fill="#fcbd9a"
           rx="7.5"
           ry="7.9000001"
           transform="matrix(-0.949,0.315,-0.315,-0.949,208.856,172.273)"
           id="ellipse132" />
      </g>
      <g
         id="XMLID_2456_"
         opacity="0.3">
        <path
           id="XMLID_3567_"
           d="m 83.4,105.4 c 1.4,4.1 5.7,6.4 9.6,5.1 3.5,-1.2 5.6,-4.9 4.9,-8.6 -0.8,2 -2.4,3.7 -4.5,4.4 -3.9,1.3 -8.2,-1 -9.6,-5.1 -0.1,-0.4 -0.2,-0.8 -0.3,-1.2 -0.6,1.6 -0.7,3.5 -0.1,5.4 z" />
      </g>
      <g
         id="XMLID_2455_">
        <path
           id="XMLID_3580_"
           d="m 90.7,111.9 c -1.4,0 -2.7,-0.3 -4,-1 -2,-1.1 -3.6,-2.9 -4.3,-5.2 -0.7,-2.2 -0.6,-4.6 0.4,-6.7 1,-2.1 2.7,-3.7 4.9,-4.4 4.5,-1.5 9.3,1.1 10.9,5.7 1.5,4.6 -0.8,9.6 -5.3,11.1 -0.8,0.3 -1.7,0.5 -2.6,0.5 z M 90.3,96.2 c -0.6,0 -1.3,0.1 -1.9,0.3 -1.6,0.5 -3,1.7 -3.7,3.3 -0.8,1.6 -0.9,3.5 -0.3,5.2 0.6,1.8 1.8,3.2 3.4,4 1.6,0.8 3.3,1 5,0.5 3.4,-1.1 5.2,-5 4,-8.6 -1.1,-2.9 -3.7,-4.7 -6.5,-4.7 z" />
      </g>
      <g
         id="XMLID_2454_">
        <path
           d="m 90.9,95.7 c 0,0 1.1,3.1 0.6,4.7 0,0 -1,-3.9 -1.9,-4.7 z"
           id="path139" />
      </g>
      <g
         id="XMLID_2453_">
        <path
           d="m 84.6,97.9 c 0,0 1.8,3 3.7,3.9 0,0 -2.2,-0.1 -4.1,-2.6 z"
           id="path142" />
      </g>
    </g>
  </g>
</svg>
